<svg width="87" height="54" viewBox="0 0 87 54" fill="none" xmlns="http://www.w3.org/2000/svg">
<path d="M82.0928 0.4375H4.97941C3.67837 0.43859 2.43104 0.830736 1.51107 1.5279C0.591098 2.22507 0.0736274 3.17031 0.0721893 4.15625V41.3438C0.0736274 42.3297 0.591098 43.2749 1.51107 43.9721C2.43104 44.6693 3.67837 45.0614 4.97941 45.0625H33.0522L31.3697 48.25H23.9072C23.5354 48.25 23.1788 48.3619 22.9158 48.5612C22.6529 48.7605 22.5052 49.0307 22.5052 49.3125V51.4375H14.0928C13.721 51.4375 13.3643 51.5494 13.1014 51.7487C12.8385 51.948 12.6907 52.2182 12.6907 52.5C12.6907 52.7818 12.8385 53.052 13.1014 53.2513C13.3643 53.4506 13.721 53.5625 14.0928 53.5625H72.9794C73.3513 53.5625 73.7079 53.4506 73.9708 53.2513C74.2337 53.052 74.3815 52.7818 74.3815 52.5C74.3815 52.2182 74.2337 51.948 73.9708 51.7487C73.7079 51.5494 73.3513 51.4375 72.9794 51.4375H64.567V49.3125C64.567 49.0307 64.4193 48.7605 64.1564 48.5612C63.8934 48.3619 63.5368 48.25 63.165 48.25H55.7025L54.02 45.0625H82.0928C83.3938 45.0614 84.6412 44.6693 85.5611 43.9721C86.4811 43.2749 86.9986 42.3297 87 41.3438V4.15625C86.9986 3.17031 86.4811 2.22507 85.5611 1.5279C84.6412 0.830736 83.3938 0.43859 82.0928 0.4375ZM61.7629 50.375V51.4375H25.3093V50.375H61.7629ZM34.3912 48.25L36.0736 45.0625H50.9986L52.6811 48.25H34.3912ZM84.1959 41.3438C84.1954 41.7663 83.9737 42.1715 83.5794 42.4703C83.1851 42.7691 82.6504 42.9371 82.0928 42.9375H4.97941C4.42177 42.9371 3.88711 42.7691 3.49281 42.4703C3.0985 42.1715 2.87678 41.7663 2.87631 41.3438V38.6875H84.1959V41.3438ZM84.1959 36.5625H2.87631V4.15625C2.87678 3.73367 3.0985 3.3285 3.49281 3.02969C3.88711 2.73088 4.42177 2.56285 4.97941 2.5625H82.0928C82.6504 2.56285 83.1851 2.73088 83.5794 3.02969C83.9737 3.3285 84.1954 3.73367 84.1959 4.15625V36.5625Z" fill="#FFB400"/>
</svg>
